<svg version="1.2" xmlns="http://www.w3.org/2000/svg" viewBox="0 0 430 255" width="430" height="255">
	<style>
		.s0 { fill: #da408a } 
	</style>
	<g id="Layer_1-2">
		<g>
			<g>
				<path class="s0" d="m245.81 90.54h-6.27c-3.84 13.06-10.92 24.73-20.31 34.09-9.39 9.39-21.06 16.47-34.09 20.31v72.72h43.34v-86.67h14.44v86.67h43.34v-89.56h-0.15c-1.47-20.97-18.92-37.56-40.3-37.56z"/>
				<path class="s0" d="m373.22 170.45l27.21-36.57h-44.09l-19.12 27.85v0.4h-0.29l0.29-0.4c0-15.34-0.12-47.96-0.2-71.19h-39.21v127.12h39.41v-12.88l6.47-8.99 12.45 21.87h45.07z"/>
				<path fill-rule="evenodd" class="s0" d="m127.36 148.32h43.34v69.34h-43.34z"/>
				<path class="s0" d="m112.93 90.56v-23.11c0-12.77 10.34-23.12 23.11-23.12h26c12.76 0 23.11 10.35 23.11 23.12 0 12.76-10.35 23.11-23.11 23.11h-34.67v43.33h34.67c36.7 0 66.45-29.75 66.45-66.44 0-36.7-29.75-66.45-66.45-66.45h-26c-35.27 0-64.11 27.48-66.3 62.2l-0.14-0.09v4.16q-0.01 0.09-0.01 0.18 0 0.08 0.01 0.17v148.62h-14.36v38.99c32.63-0.12 57.65-26.58 57.69-59.21q0-0.04 0-0.08 0-0.08 0-0.15z"/>
				<path class="s0" d="m55.24 255.25v-0.02q-0.12 0.01-0.24 0.02z"/>
			</g>
		</g>
	</g>
</svg>